{
  "accessors": [
    {
      "bufferView": 2,
      "componentType": 5126,
      "count": 4012,
      "max": [
        0.0731438472867012,
        0.07314895838499069,
        0.022839708253741264
      ],
      "min": [
        -0.0731438472867012,
        -0.07312852889299393,
        9.833913645707071e-05
      ],
      "type": "VEC3"
    },
    {
      "bufferView": 2,
      "byteOffset": 48144,
      "componentType": 5126,
      "count": 4012,
      "max": [
        0.9999302625656128,
        0.9999021291732788,
        1.0
      ],
      "min": [
        -0.9999302625656128,
        -1.0,
        -1.0
      ],
      "type": "VEC3"
    },
    {
      "bufferView": 1,
      "componentType": 5126,
      "count": 4012,
      "max": [
        0.867544949054718,
        0.9968222975730896
      ],
      "min": [
        0.0031765520107001066,
        0.003175033489242196
      ],
      "type": "VEC2"
    },
    {
      "bufferView": 0,
      "componentType": 5125,
      "count": 13542,
      "type": "SCALAR"
    },
    {
      "bufferView": 2,
      "byteOffset": 96288,
      "componentType": 5126,
      "count": 914,
      "max": [
        0.003102258313447237,
        0.035050325095653534,
        0.0013271123170852661
      ],
      "min": [
        -0.0031022578477859497,
        -0.2536141872406006,
        -0.0005607753992080688
      ],
      "type": "VEC3"
    },
    {
      "bufferView": 2,
      "byteOffset": 107256,
      "componentType": 5126,
      "count": 914,
      "max": [
        1.0,
        1.0,
        0.9997731447219849
      ],
      "min": [
        -1.0,
        -1.0,
        -0.9997730255126953
      ],
      "type": "VEC3"
    },
    {
      "bufferView": 1,
      "byteOffset": 32096,
      "componentType": 5126,
      "count": 914,
      "max": [
        0.9999334216117859,
        0.2062949538230896
      ],
      "min": [
        6.661628867732361e-05,
        6.661628867732361e-05
      ],
      "type": "VEC2"
    },
    {
      "bufferView": 0,
      "byteOffset": 54168,
      "componentType": 5125,
      "count": 4590,
      "type": "SCALAR"
    },
    {
      "bufferView": 2,
      "byteOffset": 118224,
      "componentType": 5126,
      "count": 4012,
      "max": [
        1.0179370641708374,
        2.6976664066314697,
        0.503575325012207
      ],
      "min": [
        -1.6863207817077637,
        -1.0177239179611206,
        0.0013983927201479673
      ],
      "type": "VEC3"
    },
    {
      "bufferView": 2,
      "byteOffset": 166368,
      "componentType": 5126,
      "count": 4012,
      "max": [
        0.9999302625656128,
        0.999972403049469,
        1.0
      ],
      "min": [
        -0.9999302625656128,
        -1.0,
        -1.0
      ],
      "type": "VEC3"
    },
    {
      "bufferView": 1,
      "byteOffset": 39408,
      "componentType": 5126,
      "count": 4012,
      "max": [
        0.867544949054718,
        0.9968222975730896
      ],
      "min": [
        0.0031765520107001066,
        0.003175033489242196
      ],
      "type": "VEC2"
    },
    {
      "bufferView": 0,
      "byteOffset": 72528,
      "componentType": 5125,
      "count": 13542,
      "type": "SCALAR"
    },
    {
      "bufferView": 2,
      "byteOffset": 214512,
      "componentType": 5126,
      "count": 914,
      "max": [
        0.7139813899993896,
        0.09156358242034912,
        8.067499160766602
      ],
      "min": [
        -0.7139812707901001,
        -66.3442611694336,
        7.633004188537598
      ],
      "type": "VEC3"
    },
    {
      "bufferView": 2,
      "byteOffset": 225480,
      "componentType": 5126,
      "count": 914,
      "max": [
        1.0,
        1.0,
        0.9997731447219849
      ],
      "min": [
        -1.0,
        -1.0,
        -0.9997730851173401
      ],
      "type": "VEC3"
    },
    {
      "bufferView": 1,
      "byteOffset": 71504,
      "componentType": 5126,
      "count": 914,
      "max": [
        0.9999334216117859,
        0.2062949538230896
      ],
      "min": [
        6.661628867732361e-05,
        6.661628867732361e-05
      ],
      "type": "VEC2"
    },
    {
      "bufferView": 0,
      "byteOffset": 126696,
      "componentType": 5125,
      "count": 4590,
      "type": "SCALAR"
    }
  ],
  "asset": {
    "extras": {
      "author": "Filip (https://sketchfab.com/filip.hans.nyberg)",
      "license": "CC-BY-4.0 (http://creativecommons.org/licenses/by/4.0/)",
      "source": "https://sketchfab.com/3d-models/petridish-and-loop-cd6a0b8adc3f47e2a7392e4a8deae20c",
      "title": "Petridish and loop"
    },
    "generator": "Sketchfab-12.68.0",
    "version": "2.0"
  },
  "bufferViews": [
    {
      "buffer": 0,
      "byteLength": 145056,
      "name": "floatBufferViews",
      "target": 34963
    },
    {
      "buffer": 0,
      "byteLength": 78816,
      "byteOffset": 145056,
      "byteStride": 8,
      "name": "floatBufferViews",
      "target": 34962
    },
    {
      "buffer": 0,
      "byteLength": 236448,
      "byteOffset": 223872,
      "byteStride": 12,
      "name": "floatBufferViews",
      "target": 34962
    }
  ],
  "buffers": [
    {
      "byteLength": 460320,
      "uri": "scene.bin"
    }
  ],
  "images": [
    {
      "uri": "textures/Petridish_baseColor.png"
    }
  ],
  "materials": [
    {
      "alphaMode": "BLEND",
      "doubleSided": true,
      "name": "Petridish",
      "pbrMetallicRoughness": {
        "baseColorFactor": [
          0.5832908086461639,
          0.6068316973699874,
          0.17691279222029815,
          0.6450213127170034
        ],
        "baseColorTexture": {
          "index": 0
        },
        "metallicFactor": 0.0,
        "roughnessFactor": 0.08664013259051788
      }
    },
    {
      "doubleSided": true,
      "name": "Loop",
      "pbrMetallicRoughness": {
        "baseColorFactor": [
          1.0,
          0.059602764115503,
          0.0,
          1.0
        ],
        "metallicFactor": 0.0,
        "roughnessFactor": 0.991357908110178
      }
    },
    {
      "alphaMode": "BLEND",
      "doubleSided": true,
      "name": "Petridish.001",
      "pbrMetallicRoughness": {
        "baseColorFactor": [
          0.5918972311220545,
          0.5860363274557439,
          0.5860363274557439,
          0.7724778864415273
        ],
        "baseColorTexture": {
          "index": 0
        },
        "metallicFactor": 0.0
      }
    },
    {
      "doubleSided": true,
      "name": "Loop.001",
      "pbrMetallicRoughness": {
        "baseColorFactor": [
          0.00412404,
          0.0661316,
          0.0,
          1.0
        ],
        "metallicFactor": 0.0,
        "roughnessFactor": 0.991357908110178
      }
    }
  ],
  "meshes": [
    {
      "name": "Circle.001_Petridish_0",
      "primitives": [
        {
          "attributes": {
            "NORMAL": 1,
            "POSITION": 0,
            "TEXCOORD_0": 2
          },
          "indices": 3,
          "material": 0,
          "mode": 4
        }
      ]
    },
    {
      "name": "Torus_Loop_0",
      "primitives": [
        {
          "attributes": {
            "NORMAL": 5,
            "POSITION": 4,
            "TEXCOORD_0": 6
          },
          "indices": 7,
          "material": 1,
          "mode": 4
        }
      ]
    },
    {
      "name": "Circle.002_Petridish.001_0",
      "primitives": [
        {
          "attributes": {
            "NORMAL": 9,
            "POSITION": 8,
            "TEXCOORD_0": 10
          },
          "indices": 11,
          "material": 2,
          "mode": 4
        }
      ]
    },
    {
      "name": "Torus.001_Loop.001_0",
      "primitives": [
        {
          "attributes": {
            "NORMAL": 13,
            "POSITION": 12,
            "TEXCOORD_0": 14
          },
          "indices": 15,
          "material": 3,
          "mode": 4
        }
      ]
    }
  ],
  "nodes": [
    {
      "children": [
        1
      ],
      "matrix": [
        1.0,
        0.0,
        0.0,
        0.0,
        0.0,
        2.220446049250313e-16,
        -1.0,
        0.0,
        0.0,
        1.0,
        2.220446049250313e-16,
        0.0,
        0.0,
        0.0,
        0.0,
        1.0
      ],
      "name": "Sketchfab_model"
    },
    {
      "children": [
        2
      ],
      "matrix": [
        0.009999999776482582,
        0.0,
        0.0,
        0.0,
        0.0,
        0.0,
        0.009999999776482582,
        0.0,
        0.0,
        -0.009999999776482582,
        0.0,
        0.0,
        0.0,
        0.0,
        0.0,
        1.0
      ],
      "name": "loop petri.fbx"
    },
    {
      "children": [
        3,
        5,
        7,
        9
      ],
      "name": "RootNode"
    },
    {
      "children": [
        4
      ],
      "matrix": [
        100.0,
        0.0,
        0.0,
        0.0,
        0.0,
        -1.629206793918314e-05,
        -99.99999999999868,
        0.0,
        0.0,
        99.99999999999868,
        -1.629206793918314e-05,
        0.0,
        0.0,
        0.0,
        0.0,
        1.0
      ],
      "name": "Circle.001"
    },
    {
      "mesh": 0,
      "name": "Circle.001_Petridish_0"
    },
    {
      "children": [
        6
      ],
      "matrix": [
        100.0,
        0.0,
        0.0,
        0.0,
        -0.0,
        -1.629206793918314e-05,
        -99.99999999999868,
        0.0,
        0.0,
        99.99999999999868,
        -1.629206793918314e-05,
        0.0,
        -9.07522201538086,
        0.0,
        0.0,
        1.0
      ],
      "name": "Torus"
    },
    {
      "mesh": 1,
      "name": "Torus_Loop_0"
    },
    {
      "children": [
        8
      ],
      "matrix": [
        7.032297611236572,
        0.0,
        0.0,
        0.0,
        0.0,
        -1.1457067045082156e-06,
        -7.032297611236479,
        0.0,
        0.0,
        7.032297611236479,
        -1.1457067045082156e-06,
        0.0,
        16.148704528808594,
        0.0,
        0.0,
        1.0
      ],
      "name": "Circle.002"
    },
    {
      "mesh": 2,
      "name": "Circle.002_Petridish.001_0"
    },
    {
      "children": [
        10
      ],
      "matrix": [
        0.39714450605979096,
        -0.054352624067400504,
        -0.16767052470374944,
        0.0,
        -0.1639261836734043,
        0.03800032701579757,
        -0.400593967560159,
        0.0,
        0.06477511263948586,
        0.42941022169541787,
        0.01422735312530712,
        0.0,
        16.148704528808594,
        -0.734271228313446,
        2.4708237648010254,
        1.0
      ],
      "name": "Torus.001"
    },
    {
      "mesh": 3,
      "name": "Torus.001_Loop.001_0"
    }
  ],
  "samplers": [
    {
      "magFilter": 9729,
      "minFilter": 9987,
      "wrapS": 10497,
      "wrapT": 10497
    }
  ],
  "scene": 0,
  "scenes": [
    {
      "name": "Sketchfab_Scene",
      "nodes": [
        0
      ]
    }
  ],
  "textures": [
    {
      "sampler": 0,
      "source": 0
    }
  ]
}
