{
  "accessors": [
    {
      "bufferView": 2,
      "componentType": 5126,
      "count": 13201,
      "max": [
        1.1170555353164673,
        0.3564837872982025,
        0.03639467433094978
      ],
      "min": [
        -1.584680438041687,
        -0.44351622462272644,
        0.02688385359942913
      ],
      "type": "VEC3"
    },
    {
      "bufferView": 2,
      "byteOffset": 158412,
      "componentType": 5126,
      "count": 13201,
      "max": [
        1.0,
        1.0,
        1.0
      ],
      "min": [
        -1.0,
        -1.0,
        -1.0
      ],
      "type": "VEC3"
    },
    {
      "bufferView": 1,
      "componentType": 5126,
      "count": 13201,
      "max": [
        0.8750000596046448,
        1.0
      ],
      "min": [
        0.125,
        0.0
      ],
      "type": "VEC2"
    },
    {
      "bufferView": 0,
      "componentType": 5125,
      "count": 60597,
      "type": "SCALAR"
    },
    {
      "bufferView": 2,
      "byteOffset": 316824,
      "componentType": 5126,
      "count": 16829,
      "max": [
        0.7875757217407227,
        0.2979471981525421,
        0.05269024148583412
      ],
      "min": [
        -0.003176382277160883,
        -0.15083332359790802,
        -0.1325584501028061
      ],
      "type": "VEC3"
    },
    {
      "bufferView": 2,
      "byteOffset": 518772,
      "componentType": 5126,
      "count": 16829,
      "max": [
        1.0,
        1.0,
        1.0
      ],
      "min": [
        -1.0,
        -1.0,
        -0.010614774189889431
      ],
      "type": "VEC3"
    },
    {
      "bufferView": 1,
      "byteOffset": 105608,
      "componentType": 5126,
      "count": 16829,
      "max": [
        0.7286585569381714,
        0.6585366129875183
      ],
      "min": [
        0.6554874777793884,
        0.5182926058769226
      ],
      "type": "VEC2"
    },
    {
      "bufferView": 0,
      "byteOffset": 242388,
      "componentType": 5125,
      "count": 35706,
      "type": "SCALAR"
    },
    {
      "bufferView": 2,
      "byteOffset": 720720,
      "componentType": 5126,
      "count": 1481,
      "max": [
        1.2741854190826416,
        0.3902563154697418,
        0.3072117567062378
      ],
      "min": [
        -1.2957587242126465,
        -0.370719313621521,
        -0.6146616339683533
      ],
      "type": "VEC3"
    },
    {
      "bufferView": 2,
      "byteOffset": 738492,
      "componentType": 5126,
      "count": 1481,
      "max": [
        1.0,
        1.0,
        1.0
      ],
      "min": [
        -1.0,
        -1.0,
        -1.0
      ],
      "type": "VEC3"
    },
    {
      "bufferView": 1,
      "byteOffset": 240240,
      "componentType": 5126,
      "count": 1481,
      "max": [
        0.36890244483947754,
        0.7439024448394775
      ],
      "min": [
        0.0,
        0.0
      ],
      "type": "VEC2"
    },
    {
      "bufferView": 0,
      "byteOffset": 385212,
      "componentType": 5125,
      "count": 4710,
      "type": "SCALAR"
    },
    {
      "bufferView": 2,
      "byteOffset": 756264,
      "componentType": 5126,
      "count": 1592,
      "max": [
        1.2821853160858154,
        0.3902563154697418,
        0.3072117567062378
      ],
      "min": [
        -1.3037587404251099,
        -0.370719313621521,
        -0.5168032646179199
      ],
      "type": "VEC3"
    },
    {
      "bufferView": 2,
      "byteOffset": 775368,
      "componentType": 5126,
      "count": 1592,
      "max": [
        1.0,
        1.0,
        1.0
      ],
      "min": [
        -1.0,
        -1.0,
        -1.0
      ],
      "type": "VEC3"
    },
    {
      "bufferView": 1,
      "byteOffset": 252088,
      "componentType": 5126,
      "count": 1592,
      "max": [
        0.36890244483947754,
        0.7439024448394775
      ],
      "min": [
        0.0,
        0.0
      ],
      "type": "VEC2"
    },
    {
      "bufferView": 0,
      "byteOffset": 404052,
      "componentType": 5125,
      "count": 4911,
      "type": "SCALAR"
    },
    {
      "bufferView": 2,
      "byteOffset": 794472,
      "componentType": 5126,
      "count": 23951,
      "max": [
        0.025084616616368294,
        0.15468011796474457,
        0.11522744596004486
      ],
      "min": [
        -0.0476251095533371,
        -0.08084038645029068,
        -0.19677218794822693
      ],
      "type": "VEC3"
    },
    {
      "bufferView": 2,
      "byteOffset": 1081884,
      "componentType": 5126,
      "count": 23951,
      "max": [
        1.0,
        1.0,
        1.0
      ],
      "min": [
        -1.0,
        -1.0,
        -1.0
      ],
      "type": "VEC3"
    },
    {
      "bufferView": 1,
      "byteOffset": 264824,
      "componentType": 5126,
      "count": 23951,
      "max": [
        0.9302657842636108,
        0.9414552450180054
      ],
      "min": [
        0.006324172019958496,
        0.006323814392089844
      ],
      "type": "VEC2"
    },
    {
      "bufferView": 1,
      "byteOffset": 456432,
      "componentType": 5126,
      "count": 23951,
      "max": [
        0.8343626856803894,
        0.9990898370742798
      ],
      "min": [
        0.0,
        0.0
      ],
      "type": "VEC2"
    },
    {
      "bufferView": 0,
      "byteOffset": 423696,
      "componentType": 5125,
      "count": 127968,
      "type": "SCALAR"
    },
    {
      "bufferView": 2,
      "byteOffset": 1369296,
      "componentType": 5126,
      "count": 2056,
      "max": [
        0.026539165526628494,
        0.022585151717066765,
        0.06443022936582565
      ],
      "min": [
        -0.011855095624923706,
        -0.028001632541418076,
        -0.035569772124290466
      ],
      "type": "VEC3"
    },
    {
      "bufferView": 2,
      "byteOffset": 1393968,
      "componentType": 5126,
      "count": 2056,
      "max": [
        1.0,
        1.0,
        1.0
      ],
      "min": [
        -1.0,
        -1.0,
        -1.0
      ],
      "type": "VEC3"
    },
    {
      "bufferView": 1,
      "byteOffset": 648040,
      "componentType": 5126,
      "count": 2056,
      "max": [
        0.9969215393066406,
        0.9699137210845947
      ],
      "min": [
        0.003078460693359375,
        0.0030784308910369873
      ],
      "type": "VEC2"
    },
    {
      "bufferView": 0,
      "byteOffset": 935568,
      "componentType": 5125,
      "count": 9720,
      "type": "SCALAR"
    },
    {
      "bufferView": 2,
      "byteOffset": 1418640,
      "componentType": 5126,
      "count": 12334,
      "max": [
        5.440662384033203,
        1.675118088722229,
        5.4919867515563965
      ],
      "min": [
        -5.546882152557373,
        -2.594630718231201,
        -5.50801420211792
      ],
      "type": "VEC3"
    },
    {
      "bufferView": 2,
      "byteOffset": 1566648,
      "componentType": 5126,
      "count": 12334,
      "max": [
        0.9996522665023804,
        0.9999937415122986,
        1.0
      ],
      "min": [
        -0.9996476769447327,
        -0.9999861121177673,
        -1.0
      ],
      "type": "VEC3"
    },
    {
      "bufferView": 1,
      "byteOffset": 664488,
      "componentType": 5126,
      "count": 12334,
      "max": [
        0.9836170673370361,
        0.983367919921875
      ],
      "min": [
        0.006324291229248047,
        0.006323814392089844
      ],
      "type": "VEC2"
    },
    {
      "bufferView": 1,
      "byteOffset": 763160,
      "componentType": 5126,
      "count": 12334,
      "max": [
        78.73915100097656,
        1.1145505905151367
      ],
      "min": [
        -38.19084167480469,
        0.0
      ],
      "type": "VEC2"
    },
    {
      "bufferView": 0,
      "byteOffset": 974448,
      "componentType": 5125,
      "count": 60054,
      "type": "SCALAR"
    }
  ],
  "asset": {
    "extras": {
      "author": "miraclejudy3 (https://sketchfab.com/miraclejudy3)",
      "license": "CC-BY-4.0 (http://creativecommons.org/licenses/by/4.0/)",
      "source": "https://sketchfab.com/3d-models/labtable2-24503d139cb049249be6fe4c2d04e7c9",
      "title": "LabTable2"
    },
    "generator": "Sketchfab-15.55.0",
    "version": "2.0"
  },
  "bufferViews": [
    {
      "buffer": 0,
      "byteLength": 1214664,
      "name": "floatBufferViews",
      "target": 34963
    },
    {
      "buffer": 0,
      "byteLength": 861832,
      "byteOffset": 1214664,
      "byteStride": 8,
      "name": "floatBufferViews",
      "target": 34962
    },
    {
      "buffer": 0,
      "byteLength": 1714656,
      "byteOffset": 2076496,
      "byteStride": 12,
      "name": "floatBufferViews",
      "target": 34962
    }
  ],
  "buffers": [
    {
      "byteLength": 3791152,
      "uri": "scene.bin"
    }
  ],
  "materials": [
    {
      "doubleSided": true,
      "name": "BlackTableTop",
      "pbrMetallicRoughness": {
        "baseColorFactor": [
          0.0437424,
          0.0437331,
          0.0437319,
          1.0
        ],
        "metallicFactor": 0.0,
        "roughnessFactor": 0.9880226795644835
      }
    },
    {
      "doubleSided": true,
      "name": "Sink",
      "pbrMetallicRoughness": {
        "baseColorFactor": [
          0.0,
          0.0,
          0.0,
          1.0
        ],
        "metallicFactor": 0.0
      }
    },
    {
      "doubleSided": true,
      "name": "Mid-side_table",
      "pbrMetallicRoughness": {
        "baseColorFactor": [
          0.562501,
          0.562501,
          0.562501,
          1.0
        ],
        "metallicFactor": 0.0,
        "roughnessFactor": 0.874220952658839
      }
    },
    {
      "doubleSided": true,
      "name": "Boards",
      "pbrMetallicRoughness": {
        "baseColorFactor": [
          1.0,
          1.0,
          0.999928,
          1.0
        ],
        "metallicFactor": 0.0,
        "roughnessFactor": 0.7763862830507142
      }
    },
    {
      "doubleSided": true,
      "name": "tap-new",
      "pbrMetallicRoughness": {
        "baseColorFactor": [
          1.0,
          1.0,
          0.999928,
          1.0
        ],
        "metallicFactor": 0.0,
        "roughnessFactor": 0.7084433837255824
      }
    },
    {
      "doubleSided": true,
      "name": "opeaner",
      "pbrMetallicRoughness": {
        "baseColorFactor": [
          0.0666366,
          0.155919,
          0.799045,
          1.0
        ],
        "metallicFactor": 0.0,
        "roughnessFactor": 0.946538550505351
      }
    }
  ],
  "meshes": [
    {
      "name": "upperLevel_BlackTableTop_0",
      "primitives": [
        {
          "attributes": {
            "NORMAL": 1,
            "POSITION": 0,
            "TEXCOORD_0": 2
          },
          "indices": 3,
          "material": 0,
          "mode": 4
        }
      ]
    },
    {
      "name": "upperLevel_Sink_0",
      "primitives": [
        {
          "attributes": {
            "NORMAL": 5,
            "POSITION": 4,
            "TEXCOORD_0": 6
          },
          "indices": 7,
          "material": 1,
          "mode": 4
        }
      ]
    },
    {
      "name": "LowerLevel_Mid-side table_0",
      "primitives": [
        {
          "attributes": {
            "NORMAL": 9,
            "POSITION": 8,
            "TEXCOORD_0": 10
          },
          "indices": 11,
          "material": 2,
          "mode": 4
        }
      ]
    },
    {
      "name": "LowerLevel_Boards_0",
      "primitives": [
        {
          "attributes": {
            "NORMAL": 13,
            "POSITION": 12,
            "TEXCOORD_0": 14
          },
          "indices": 15,
          "material": 3,
          "mode": 4
        }
      ]
    },
    {
      "name": "sink-tube.001_tap-new_0",
      "primitives": [
        {
          "attributes": {
            "NORMAL": 17,
            "POSITION": 16,
            "TEXCOORD_0": 18,
            "TEXCOORD_1": 19
          },
          "indices": 20,
          "material": 4,
          "mode": 4
        }
      ]
    },
    {
      "name": "Sink-tap.001_opeaner_0",
      "primitives": [
        {
          "attributes": {
            "NORMAL": 22,
            "POSITION": 21,
            "TEXCOORD_0": 23
          },
          "indices": 24,
          "material": 5,
          "mode": 4
        }
      ]
    },
    {
      "name": "Sink-outlet.001_tap-new_0",
      "primitives": [
        {
          "attributes": {
            "NORMAL": 26,
            "POSITION": 25,
            "TEXCOORD_0": 27,
            "TEXCOORD_1": 28
          },
          "indices": 29,
          "material": 4,
          "mode": 4
        }
      ]
    }
  ],
  "nodes": [
    {
      "children": [
        1
      ],
      "matrix": [
        1.0,
        0.0,
        0.0,
        0.0,
        0.0,
        2.220446049250313e-16,
        -1.0,
        0.0,
        0.0,
        1.0,
        2.220446049250313e-16,
        0.0,
        0.0,
        0.0,
        0.0,
        1.0
      ],
      "name": "Sketchfab_model"
    },
    {
      "children": [
        2
      ],
      "matrix": [
        0.009999999776482582,
        0.0,
        0.0,
        0.0,
        0.0,
        0.0,
        0.009999999776482582,
        0.0,
        0.0,
        -0.009999999776482582,
        0.0,
        0.0,
        0.0,
        0.0,
        0.0,
        1.0
      ],
      "name": "7ed4494d291941189ac2969beda7e8a1.fbx"
    },
    {
      "children": [
        3,
        6,
        9,
        11,
        13
      ],
      "name": "RootNode"
    },
    {
      "children": [
        4,
        5
      ],
      "matrix": [
        100.0,
        0.0,
        0.0,
        0.0,
        -0.0,
        -1.629206793918314e-05,
        -99.99999999999868,
        0.0,
        0.0,
        99.99999999999868,
        -1.629206793918314e-05,
        0.0,
        -405.10931396484375,
        90.03921508789063,
        51.76336669921875,
        1.0
      ],
      "name": "upperLevel"
    },
    {
      "mesh": 0,
      "name": "upperLevel_BlackTableTop_0"
    },
    {
      "mesh": 1,
      "name": "upperLevel_Sink_0"
    },
    {
      "children": [
        7,
        8
      ],
      "matrix": [
        100.0,
        0.0,
        0.0,
        0.0,
        -0.0,
        -1.629206793918314e-05,
        -99.99999999999868,
        0.0,
        0.0,
        99.99999999999868,
        -1.629206793918314e-05,
        0.0,
        -427.4118957519531,
        62.00642395019531,
        57.09183120727539,
        1.0
      ],
      "name": "LowerLevel"
    },
    {
      "mesh": 2,
      "name": "LowerLevel_Mid-side table_0"
    },
    {
      "mesh": 3,
      "name": "LowerLevel_Boards_0"
    },
    {
      "children": [
        10
      ],
      "matrix": [
        100.0,
        0.0,
        0.0,
        0.0,
        -0.0,
        -1.629206793918314e-05,
        -99.99999999999868,
        0.0,
        0.0,
        99.99999999999868,
        -1.629206793918314e-05,
        0.0,
        -366.5098876953125,
        112.8662109375,
        67.30802154541016,
        1.0
      ],
      "name": "sink-tube.001"
    },
    {
      "mesh": 4,
      "name": "sink-tube.001_tap-new_0"
    },
    {
      "children": [
        12
      ],
      "matrix": [
        100.0,
        0.0,
        0.0,
        0.0,
        -0.0,
        -1.629206793918314e-05,
        -99.99999999999868,
        0.0,
        0.0,
        99.99999999999868,
        -1.629206793918314e-05,
        0.0,
        -372.16693115234375,
        98.29595947265625,
        70.98896789550781,
        1.0
      ],
      "name": "Sink-tap.001"
    },
    {
      "mesh": 5,
      "name": "Sink-tap.001_opeaner_0"
    },
    {
      "children": [
        14
      ],
      "matrix": [
        1.724012520758239e-07,
        -0.052335600834198755,
        -0.9986292549484693,
        0.0,
        4.514457123698578e-09,
        0.9986294335173633,
        -0.052335610192536235,
        0.0,
        0.9999997019767612,
        4.514456316450642e-09,
        1.724012520758239e-07,
        0.0,
        -365.0393371582031,
        75.50811004638672,
        44.14282989501953,
        1.0
      ],
      "name": "Sink-outlet.001"
    },
    {
      "mesh": 6,
      "name": "Sink-outlet.001_tap-new_0"
    }
  ],
  "scene": 0,
  "scenes": [
    {
      "name": "Sketchfab_Scene",
      "nodes": [
        0
      ]
    }
  ]
}
